<?xml version="1.0" encoding="utf-8"?>
<!-- Generator: Adobe Illustrator 26.1.0, SVG Export Plug-In . SVG Version: 6.00 Build 0)  -->
<svg version="1.1" id="Layer_1" xmlns="http://www.w3.org/2000/svg" xmlns:xlink="http://www.w3.org/1999/xlink" x="0px" y="0px"
	 viewBox="0 0 14400 14400" style="enable-background:new 0 0 14400 14400;" xml:space="preserve">
<style type="text/css">
	.st0{fill:#21201F;}
	.st1{opacity:0.88;}
	.st2{fill:#FFFFFF;}
	.st3{font-family:'Klee-Demibold-83pv-RKSJ-H';}
	.st4{font-size:80px;}
	.st5{font-size:64px;}
	.st6{writing-mode:tb;}
	.st7{font-family:'HannariMincho-83pv-RKSJ-H';}
	.st8{font-size:42.7702px;glyph-orientation-vertical:0;}
	.st9{fill:#FFFFFF;stroke:#FFFFFF;stroke-width:2;stroke-miterlimit:10;}
</style>
<rect x="6239.5" y="6848" class="st0" width="1920" height="695.5"/>
<g class="st1">
	
		<image style="overflow:visible;opacity:0.73;" width="432" height="441" xlink:href="6DC5292EE4834F05.png"  transform="matrix(1 0 0 1 7302.5 7177.5)">
	</image>
	<g>
		<g>
			
				<image style="overflow:visible;" width="577" height="589" id="gkHQlG_00000146462113057705401830000011500483887318294144_" xlink:href="6DC5292EE4834F07.jpg"  transform="matrix(0.6952 0 0 0.6952 7310.6836 7186.0596)">
			</image>
		</g>
	</g>
</g>
<text transform="matrix(1 0 0 1 7423.8711 6984.5317)"><tspan x="0" y="0" class="st2 st3 st4">プルッ</tspan><tspan x="240" y="0" class="st2 st3 st5">とした</tspan><tspan x="0" y="96" class="st2 st3 st4">魔法</tspan><tspan x="160" y="96" class="st2 st3 st5">の</tspan><tspan x="224" y="96" class="st2 st3 st4">スライム</tspan></text>
<text transform="matrix(1 0 0 1 6777.5127 6923.7075)" class="st6"><tspan x="0" y="0" class="st2 st7 st8">持続力だけじゃない、唯一</tspan><tspan x="-65" y="0" class="st2 st7 st8">補強と保湿を同時に叶える。</tspan></text>
<line class="st9" x1="6737.1" y1="6934.3" x2="6737.1" y2="7436.4"/>
<line class="st9" x1="6803.8" y1="7355.2" x2="6803.8" y2="7431.2"/>
<g id="ktSJXS.tif">
	
		<image style="overflow:visible;" width="341" height="787" id="Layer_0_00000106114098586364914000000007500415887403301032_" xlink:href="6DC5292EE4834F02.png"  transform="matrix(1.142 0 0 1.142 7013.4302 6752.3276)">
	</image>
</g>
</svg>
