<?xml version="1.0" encoding="utf-8"?>
<!-- Generator: Adobe Illustrator 26.1.0, SVG Export Plug-In . SVG Version: 6.00 Build 0)  -->
<svg version="1.1" id="Layer_1" xmlns="http://www.w3.org/2000/svg" xmlns:xlink="http://www.w3.org/1999/xlink" x="0px" y="0px"
	 viewBox="0 0 14400 14400" style="enable-background:new 0 0 14400 14400;" xml:space="preserve">
<style type="text/css">
	.st0{fill:#BDB4AB;}
	.st1{fill:#FFFFFF;}
	.st2{font-family:'ArialMT';}
	.st3{font-size:95.7407px;}
	.st4{fill:#333333;}
	.st5{font-family:'NotoSansJP-Regular-83pv-RKSJ-H';}
	.st6{font-size:44.1957px;}
	.st7{fill:#ED1C24;}
</style>
<g>
	<rect x="6600.9" y="7013.5" class="st0" width="199.5" height="199.5"/>
	<text transform="matrix(1 0 0 1 6676.0889 7141.3032)" class="st1 st2 st3">1</text>
</g>
<g>
	<rect x="6940.4" y="7011.4" class="st0" width="199.5" height="199.5"/>
	<text transform="matrix(1 0 0 1 7015.5264 7139.3267)" class="st1 st2 st3">2</text>
</g>
<g>
	<rect x="7259.1" y="7011.1" class="st0" width="199.5" height="199.5"/>
	<text transform="matrix(1 0 0 1 7334.2427 7138.9028)" class="st1 st2 st3">3</text>
</g>
<g>
	<rect x="7602.1" y="7009.1" class="st0" width="199.5" height="199.5"/>
	<text transform="matrix(1 0 0 1 7677.2627 7136.9263)" class="st1 st2 st3">4</text>
</g>
<g>
	<polygon class="st4" points="7182.5,7089.5 7207.4,7114.3 7183.1,7138.9 7177,7132.7 7195.1,7114 7176.7,7095.9 	"/>
	<polygon class="st4" points="7200.8,7089.9 7225.6,7114.7 7201.3,7139.2 7195.2,7133.1 7213.3,7114.3 7195,7096.3 	"/>
</g>
<g>
	<polygon class="st4" points="6847.7,7089.2 6872.6,7113.8 6848.3,7138.4 6842.2,7132.4 6860.2,7113.5 6841.9,7095.5 	"/>
	<polygon class="st4" points="6866,7089.4 6890.8,7114.2 6866.5,7138.8 6860.5,7132.6 6878.5,7113.8 6860.1,7095.8 	"/>
</g>
<g>
	<polygon class="st4" points="7512.2,7088.5 7537,7113.3 7512.7,7137.9 7506.6,7131.8 7524.8,7113 7506.3,7094.9 	"/>
	<polygon class="st4" points="7530.4,7088.9 7555.3,7113.6 7531,7138.3 7524.9,7132.1 7542.9,7113.2 7524.6,7095.3 	"/>
</g>
<text transform="matrix(1 0 0 1 6709.4106 7279.8149)" class="st5 st6">インカラミ反応</text>
<text transform="matrix(1 0 0 1 6753.6074 7332.8491)" class="st5 st6">効果最大化</text>
<text transform="matrix(1 0 0 1 7267.5215 7282.6118)" class="st5 st6">強度回復</text>
<text transform="matrix(1 0 0 1 7611.627 7282.9976)" class="st7 st5 st6">質感形成</text>
</svg>
