<?xml version="1.0" encoding="utf-8"?>
<!-- Generator: Adobe Illustrator 26.1.0, SVG Export Plug-In . SVG Version: 6.00 Build 0)  -->
<svg version="1.1" id="Layer_1" xmlns="http://www.w3.org/2000/svg" xmlns:xlink="http://www.w3.org/1999/xlink" x="0px" y="0px"
	 viewBox="0 0 8160 2515" style="enable-background:new 0 0 8160 2515;" xml:space="preserve">
<style type="text/css">
	.st0{fill:#BDB4AB;}
	.st1{fill:#FFFFFF;}
	.st2{font-family:'ArialMT';}
	.st3{font-size:650.69px;}
	.st4{fill:#333333;}
	.st5{font-family:'NotoSansJP-Regular-83pv-RKSJ-H';}
	.st6{font-size:300.3704px;}
	.st7{fill:#ED1C24;}
</style>
<g>
	<rect x="-25" y="29.5" class="st0" width="1355.8" height="1355.8"/>
	<text transform="matrix(1 0 0 1 485.7679 897.9088)" class="st1 st2 st3">1</text>
</g>
<g>
	<rect x="2282" y="15.3" class="st0" width="1355.8" height="1355.8"/>
	<text transform="matrix(1 0 0 1 2792.7151 884.4762)" class="st1 st2 st3">2</text>
</g>
<g>
	<rect x="4448" y="12.8" class="st0" width="1355.8" height="1355.8"/>
	<text transform="matrix(1 0 0 1 4958.8296 881.5944)" class="st1 st2 st3">3</text>
</g>
<g>
	<rect x="6779.2" y="-0.5" class="st0" width="1355.8" height="1355.8"/>
	<text transform="matrix(1 0 0 1 7290.1196 868.1617)" class="st1 st2 st3">4</text>
</g>
<g>
	<polygon class="st4" points="3927.4,546 4096.8,714.5 3931.6,881.4 3889.8,839.7 4013.3,712 3888.2,589.4 	"/>
	<polygon class="st4" points="4051.7,548.5 4220.3,717 4055,883.9 4014.2,842.2 4136.8,714.5 4012.5,591.9 	"/>
</g>
<g>
	<polygon class="st4" points="1652.1,543.5 1821.5,711.2 1656.3,878.1 1614.5,837.2 1737.2,708.7 1612.9,586.9 	"/>
	<polygon class="st4" points="1776.4,545.2 1944.9,713.7 1779.7,880.6 1738.9,838.9 1861.5,711.2 1736.4,588.5 	"/>
</g>
<g>
	<polygon class="st4" points="6168.5,539.3 6337,707.9 6171.8,874.7 6130.1,833 6253.6,705.4 6128.4,582.7 	"/>
	<polygon class="st4" points="6292,541.8 6461.3,709.5 6296.1,877.2 6254.4,835.5 6377.1,707 6252.8,585.2 	"/>
</g>
<text transform="matrix(1 0 0 1 712.2338 1839.2887)" class="st5 st6">インカラミ反応</text>
<text transform="matrix(1 0 0 1 1012.6127 2199.7253)" class="st5 st6">効果最大化</text>
<text transform="matrix(1 0 0 1 4505.3677 1858.2926)" class="st5 st6">強度回復</text>
<text transform="matrix(1 0 0 1 6844.0356 1860.9186)" class="st7 st5 st6">質感形成</text>
</svg>
