<?xml version="1.0" encoding="utf-8"?>
<!-- Generator: Adobe Illustrator 26.1.0, SVG Export Plug-In . SVG Version: 6.00 Build 0)  -->
<svg version="1.1" id="Layer_1" xmlns="http://www.w3.org/2000/svg" xmlns:xlink="http://www.w3.org/1999/xlink" x="0px" y="0px"
	 viewBox="0 0 14400 14400" style="enable-background:new 0 0 14400 14400;" xml:space="preserve">
<style type="text/css">
	.st0{fill:#BDB4AB;}
	.st1{fill:#FFFFFF;}
	.st2{font-family:'MyriadPro-Regular';}
	.st3{font-size:153.5212px;}
	.st4{fill:#333333;}
	.st5{font-family:'NotoSansJP-Regular-83pv-RKSJ-H';}
	.st6{font-size:70.8682px;}
	.st7{fill:#ED1C24;}
</style>
<g>
	<rect x="6234.9" y="6907.7" class="st0" width="319.8" height="319.8"/>
	<text transform="matrix(1 0 0 1 6355.4688 7112.7002)" class="st1 st2 st3">1</text>
</g>
<g>
	<rect x="6779.2" y="6904.6" class="st0" width="319.8" height="319.8"/>
	<text transform="matrix(1 0 0 1 6899.7627 7109.5322)" class="st1 st2 st3">2</text>
</g>
<g>
	<rect x="7290.3" y="6903.9" class="st0" width="319.8" height="319.8"/>
	<text transform="matrix(1 0 0 1 7410.8252 7108.8506)" class="st1 st2 st3">3</text>
</g>
<g>
	<rect x="7840.3" y="6900.7" class="st0" width="319.8" height="319.8"/>
	<text transform="matrix(1 0 0 1 7960.8623 7105.6836)" class="st1 st2 st3">4</text>
</g>
<g>
	<polygon class="st4" points="7167.6,7029.7 7207.4,7069.4 7168.4,7108.8 7158.7,7099 7187.7,7068.8 7158.2,7039.9 	"/>
	<polygon class="st4" points="7196.8,7030.3 7236.7,7070 7197.7,7109.4 7187.9,7099.5 7216.9,7069.4 7187.5,7040.5 	"/>
</g>
<g>
	<polygon class="st4" points="6630.7,7029 6670.5,7068.7 6631.5,7108.1 6621.8,7098.3 6650.8,7068.1 6621.3,7039.2 	"/>
	<polygon class="st4" points="6659.9,7029.6 6699.8,7069.2 6660.8,7108.7 6651,7098.8 6680.1,7068.7 6650.6,7039.8 	"/>
</g>
<g>
	<polygon class="st4" points="7696.2,7028.1 7736,7067.8 7697,7107.2 7687.3,7097.4 7716.3,7067.2 7686.8,7038.3 	"/>
	<polygon class="st4" points="7725.4,7028.7 7765.3,7068.3 7726.3,7107.7 7716.5,7097.9 7745.5,7067.8 7716.1,7038.9 	"/>
</g>
<text transform="matrix(1 0 0 1 6408.9048 7339.9565)"><tspan x="0" y="0" class="st5 st6">インカラミ反応</tspan><tspan x="70.9" y="85" class="st5 st6">効果最大化</tspan></text>
<text transform="matrix(1 0 0 1 7303.8408 7339.2896)" class="st5 st6">強度回復</text>
<text transform="matrix(1 0 0 1 7855.6162 7339.9116)" class="st7 st5 st6">質感形成</text>
</svg>
